<svg width="21" height="24" viewBox="0 0 21 24" fill="none" xmlns="http://www.w3.org/2000/svg">
<path d="M10.4426 1.66086C9.67089 1.66086 8.93077 1.96765 8.38508 2.51373C7.83938 3.05982 7.53281 3.80047 7.53281 4.57275V7.48463H6.07791V4.57275C6.07791 3.41433 6.53776 2.30335 7.3563 1.48423C8.17485 0.665098 9.28503 0.204918 10.4426 0.204918C11.6002 0.204918 12.7104 0.665098 13.5289 1.48423C14.3475 2.30335 14.8073 3.41433 14.8073 4.57275V7.48463H13.3524V4.57275C13.3524 3.80047 13.0459 3.05982 12.5002 2.51373C11.9545 1.96765 11.2144 1.66086 10.4426 1.66086ZM6.07791 7.48463H3.69187C3.16937 7.48475 2.66426 7.67245 2.26833 8.01363C1.87239 8.35481 1.61192 8.82681 1.53424 9.34387L0.0400561 19.3214C-0.0373626 19.8392 -0.00228232 20.3675 0.142904 20.8704C0.28809 21.3733 0.539966 21.8389 0.881348 22.2356C1.22273 22.6322 1.64559 22.9505 2.12107 23.1687C2.59656 23.3869 3.11348 23.4999 3.63658 23.5H17.2472C17.7704 23.5001 18.2875 23.3873 18.7632 23.1691C19.2388 22.951 19.6619 22.6328 20.0034 22.2361C20.345 21.8395 20.597 21.3737 20.7422 20.8707C20.8875 20.3677 20.9226 19.8393 20.8452 19.3214L19.3495 9.34387C19.2719 8.82706 19.0116 8.35525 18.616 8.0141C18.2204 7.67296 17.7156 7.4851 17.1934 7.48463H14.8073V9.66854C14.8073 9.86162 14.7307 10.0468 14.5943 10.1833C14.4578 10.3198 14.2728 10.3965 14.0799 10.3965C13.887 10.3965 13.7019 10.3198 13.5655 10.1833C13.4291 10.0468 13.3524 9.86162 13.3524 9.66854V7.48463H7.53281V9.66854C7.53281 9.86162 7.45617 10.0468 7.31975 10.1833C7.18332 10.3198 6.99829 10.3965 6.80536 10.3965C6.61243 10.3965 6.4274 10.3198 6.29098 10.1833C6.15455 10.0468 6.07791 9.86162 6.07791 9.66854V7.48463Z" fill="#FB8500"/>
</svg>
