<svg width="174" height="36" viewBox="0 0 174 36" fill="none" xmlns="http://www.w3.org/2000/svg">
<path fill-rule="evenodd" clip-rule="evenodd" d="M58.6832 8.65637H101.248V34.6811H58.6832V8.65637ZM78.7196 11.9613H96.6408L82.8792 29.8577H97.6757V31.7148H62.2532L75.9693 13.8083H62.2558V11.979H78.7196V11.9613ZM92.4357 13.788H78.7727L66.4204 29.8577H80.1365L92.4357 13.788ZM153.962 20.0441C153.915 20.3857 153.892 20.7302 153.894 21.075C153.897 22.9055 154.444 24.6939 155.466 26.2139C156.487 27.7338 157.937 28.9171 159.632 29.6138C161.327 30.3106 163.191 30.4897 164.988 30.1283C166.785 29.7669 168.435 28.8813 169.727 27.5837C170.036 27.2754 170.33 26.9545 170.61 26.6159L172.574 27.3083C172.15 27.914 171.662 28.4715 171.116 28.9708C170.08 30.0341 168.842 30.8813 167.475 31.4631C166.108 32.0449 164.639 32.3499 163.153 32.3602C161.668 32.3705 160.194 32.0859 158.819 31.5231C157.445 30.9603 156.195 30.1303 155.144 29.0815C154.093 28.0326 153.261 26.7857 152.696 25.4132C152.131 24.0406 151.845 22.5697 151.854 21.0858C151.864 19.6019 152.168 18.1347 152.749 16.7691C153.331 15.4036 154.178 14.167 155.242 13.1311C157.347 11.0293 160.202 9.84862 163.179 9.84862C166.156 9.84862 169.011 11.0293 171.116 13.1311C172.041 14.0275 172.773 15.103 173.267 16.2916C173.762 17.4803 174.008 18.7571 173.991 20.0441H153.962ZM154.314 18.1718H171.931C171.506 16.7971 170.749 15.5476 169.727 14.5334C168.866 13.6717 167.843 12.988 166.717 12.5215C165.591 12.055 164.383 11.8149 163.164 11.8149C161.945 11.8149 160.738 12.055 159.611 12.5215C158.485 12.988 157.462 13.6717 156.601 14.5334C155.57 15.5559 154.788 16.8005 154.314 18.1718ZM134.578 16.1505V31.7148H132.731V11.6631H134.578V12.9593C136.24 11.2967 138.18 10.4655 140.398 10.4655C142.769 10.4655 144.701 11.2066 146.192 12.6889C147.683 14.1713 148.442 16.0385 148.469 18.2906V31.7148H146.645V18.475C146.658 17.6596 146.5 16.8505 146.181 16.0998C145.862 15.3491 145.389 14.6735 144.793 14.1165C143.628 12.9634 142.056 12.3143 140.417 12.3096C138.777 12.3049 137.201 12.9449 136.031 14.0912C135.422 14.6781 134.926 15.3719 134.568 16.1378L134.578 16.1505ZM117.568 11.8021C115.417 11.7921 113.33 12.5274 111.662 13.8826C109.994 15.2378 108.848 17.1289 108.42 19.2334C107.992 21.3379 108.308 23.5256 109.315 25.4232C110.322 27.3209 111.956 28.811 113.94 29.6395C115.924 30.4681 118.135 30.5836 120.195 29.9666C122.254 29.3495 124.036 28.038 125.236 26.2557C126.435 24.4734 126.979 22.3307 126.773 20.1931C126.568 18.0554 125.626 16.0552 124.108 14.5334C123.263 13.6563 122.246 12.9615 121.121 12.4917C119.996 12.022 118.787 11.7873 117.568 11.8021ZM117.568 9.85402C119.786 9.85595 121.954 10.514 123.798 11.7452C125.642 12.9764 127.079 14.7256 127.929 16.7718C128.778 18.8181 129.002 21.0698 128.571 23.2427C128.14 25.4156 127.074 27.4124 125.508 28.9809C124.203 30.2831 122.597 31.2439 120.832 31.7784C119.067 32.3129 117.197 32.4046 115.388 32.0453C113.579 31.686 111.887 30.8868 110.461 29.7186C109.035 28.5503 107.919 27.0489 107.213 25.3474C106.506 23.6458 106.231 21.7967 106.411 19.9635C106.591 18.1304 107.221 16.3699 108.245 14.8379C109.269 13.3059 110.655 12.0496 112.282 11.1803C113.908 10.3109 115.723 9.85542 117.568 9.85402ZM41.4097 11.8021C39.2567 11.7884 37.1656 12.5214 35.4935 13.8757C33.8213 15.2301 32.6716 17.122 32.2406 19.2285C31.8095 21.335 32.1239 23.5257 33.13 25.4265C34.1361 27.3274 35.7716 28.8207 37.7574 29.6516C39.7432 30.4824 41.9562 30.5994 44.0187 29.9825C46.0812 29.3656 47.8654 28.053 49.0668 26.2688C50.2682 24.4846 50.8124 22.3394 50.6065 20.1992C50.4005 18.059 49.4572 16.0565 47.9375 14.5334C47.0907 13.655 46.0725 12.9593 44.9458 12.4895C43.819 12.0197 42.6078 11.7858 41.3869 11.8021H41.4097ZM41.4097 9.85402C43.6273 9.85715 45.7944 10.5159 47.6376 11.7474C49.4808 12.9788 50.9176 14.7276 51.7668 16.7734C52.616 18.8192 52.8396 21.0702 52.4094 23.2428C51.9792 25.4153 50.9144 27.4119 49.3493 28.9809C48.0448 30.2831 46.4389 31.2439 44.6738 31.7784C42.9087 32.3129 41.0388 32.4046 39.2298 32.0453C37.4208 31.686 35.7283 30.8868 34.3024 29.7186C32.8764 28.5503 31.7609 27.0489 31.0546 25.3474C30.3482 23.6458 30.0729 21.7967 30.253 19.9635C30.4331 18.1304 31.063 16.3699 32.0869 14.8379C33.1108 13.3059 34.4973 12.0496 36.1234 11.1803C37.7495 10.3109 39.5652 9.85542 41.4097 9.85402ZM25.9756 4.77288V31.6971H24.1235V4.77288H25.9756ZM18.4332 26.8737L20.3713 27.5837C20.0098 28.0777 19.6087 28.5417 19.172 28.9708C18.1322 30.0149 16.8961 30.8434 15.5346 31.4088C14.1731 31.9742 12.7131 32.2653 11.2386 32.2653C9.76409 32.2653 8.30411 31.9742 6.94262 31.4088C5.58113 30.8434 4.34498 30.0149 3.30524 28.9708C1.73663 27.4051 0.66794 25.4101 0.234206 23.2381C-0.199528 21.0661 0.0211549 18.8144 0.868371 16.7676C1.71559 14.7207 3.15132 12.9706 4.99417 11.7383C6.83702 10.5059 9.00429 9.84672 11.2222 9.84391C12.702 9.81787 14.1713 10.096 15.5389 10.6611C16.9065 11.2262 18.1432 12.066 19.172 13.1286C19.6088 13.555 20.0099 14.0164 20.3713 14.5081L18.4332 15.2257C18.2383 14.973 18.0207 14.7381 17.7854 14.4854C16.9317 13.6153 15.9095 12.928 14.7811 12.4654C13.6527 12.0028 12.4418 11.7745 11.2222 11.7945C9.6966 11.7932 8.19429 12.1679 6.84856 12.8855C5.50282 13.603 4.35527 14.6412 3.50775 15.908C2.66022 17.1747 2.13892 18.6307 1.99012 20.1469C1.84131 21.6631 2.0696 23.1925 2.65472 24.5995C3.23984 26.0064 4.1637 27.2473 5.34431 28.2122C6.52493 29.177 7.92579 29.8359 9.42258 30.1304C10.9194 30.4248 12.4658 30.3457 13.9247 29.9002C15.3835 29.4546 16.7097 28.6563 17.7854 27.5761C18.0114 27.3529 18.2259 27.1185 18.4281 26.8737H18.4332ZM70.957 7.31977H88.9769C88.4834 6.29925 87.8281 5.36499 87.0363 4.55307C86.1353 3.58342 85.0411 2.81275 83.8241 2.29057C82.607 1.7684 81.294 1.50628 79.9695 1.52106C77.2217 1.52106 74.8636 2.55447 72.9027 4.55307C72.1044 5.36177 71.4453 6.29658 70.952 7.31977H70.957ZM57.1853 7.31977H69.4212C69.9875 5.79536 70.8844 4.41486 72.0475 3.2771C74.152 1.17857 77.0044 -0.00012207 79.9784 -0.00012207C82.9524 -0.00012207 85.8048 1.17857 87.9092 3.2771C89.0694 4.41528 89.9628 5.79588 90.5254 7.31977H102.756V36.0101H57.1726V7.31977H57.1853Z" fill="black"/>
</svg>
