<svg width="19" height="46" viewBox="0 0 19 46" fill="none" xmlns="http://www.w3.org/2000/svg">
<path d="M1.31156 40.7185C1.19131 40.4817 1.0673 40.2412 0.947041 40.0045C0.135321 37.8361 0.00379267 35.5851 0.0113086 33.2928C0.0376143 23.4619 0.0376143 13.6311 3.47072e-05 3.80028C-0.00372325 2.63532 0.296914 1.75595 1.2815 1.13213C1.70615 0.955508 2.12704 0.775126 2.54793 0.598502C3.67908 0.350476 4.81398 0.369266 5.94513 0.590986C6.79443 0.955508 7.63997 1.32755 8.27506 2.0378C8.44041 2.49251 8.48551 2.96226 8.48551 3.44704C8.47424 6.73525 8.50054 10.0272 8.46672 13.3154C8.4592 14.0445 8.63583 14.3038 9.40997 14.2887C11.8639 14.2437 14.3141 14.2737 16.7681 14.2775C17.4896 14.6082 17.8165 15.2771 18.181 15.9159C18.3802 16.8592 18.4065 17.8024 18.181 18.7494C17.8729 19.3733 17.5046 19.9482 16.9259 20.3616C14.4381 20.3766 11.9503 20.4142 9.46634 20.3917C8.75608 20.3842 8.4592 20.542 8.46672 21.3312C8.50054 25.8257 8.46672 30.3164 8.49302 34.811C8.49678 35.7279 8.55691 36.6824 9.3799 37.3363C10.0112 38.0015 10.8418 38.0578 11.676 38.0729C12.6869 38.0917 13.6978 38.0541 14.7087 38.0841C15.8924 38.118 16.8996 38.5652 17.6549 39.5084C18.3614 40.9327 18.5456 42.3532 17.6549 43.785C17.0274 44.7921 16.1217 45.2731 14.953 45.2769C12.4351 45.2806 9.91353 45.3896 7.42201 44.8673C6.8771 44.6906 6.3322 44.5178 5.78729 44.3412C5.40398 44.0781 4.97933 43.9165 4.53589 43.7887C4.29914 43.5069 3.97596 43.3641 3.64526 43.2363C3.28449 42.9357 2.92749 42.6388 2.56672 42.3382C2.36379 42.0037 2.12328 41.7068 1.81137 41.4701C1.69487 41.1882 1.55583 40.9177 1.31156 40.7185Z" fill="#F7931F"/>
</svg>
