<svg width="18" height="19" viewBox="0 0 18 19" fill="none" xmlns="http://www.w3.org/2000/svg">
<path d="M12.0008 13.6791L13.5507 12.1318C13.7595 11.926 14.0236 11.7851 14.3111 11.7262C14.5985 11.6674 14.8968 11.6931 15.1699 11.8002L17.0589 12.5532C17.3349 12.665 17.5715 12.8559 17.739 13.1017C17.9065 13.3476 17.9973 13.6374 18 13.9347V17.3886C17.9984 17.5908 17.9558 17.7907 17.8748 17.976C17.7938 18.1614 17.6761 18.3285 17.5287 18.4673C17.3813 18.606 17.2073 18.7136 17.0171 18.7834C16.827 18.8533 16.6247 18.884 16.4223 18.8737C3.18528 18.0517 0.514341 6.86119 0.00921507 2.5784C-0.0142332 2.36808 0.00719085 2.15519 0.0720778 1.95374C0.136965 1.75228 0.243844 1.56682 0.385684 1.40956C0.527524 1.25231 0.701111 1.12681 0.895024 1.04133C1.08894 0.955855 1.29878 0.912334 1.51075 0.913633H4.85289C5.15113 0.914514 5.44228 1.00445 5.6889 1.17186C5.93552 1.33928 6.12634 1.57653 6.23679 1.85309L6.99102 3.7389C7.10191 4.01042 7.1302 4.30854 7.07236 4.59602C7.01452 4.8835 6.87312 5.14759 6.66581 5.35531L5.11583 6.90264C5.11583 6.90264 6.00845 12.9331 12.0008 13.6791Z" fill="white"/>
</svg>
